<svg id="Слой_2" data-name="Слой 2" xmlns="http://www.w3.org/2000/svg" xmlns:xlink="http://www.w3.org/1999/xlink" viewBox="0 0 694 60"><defs><style>.cls-1{fill:url(#linear-gradient);}.cls-2{fill:#d9d9d9;}.cls-3{fill:#e6e6e6;}</style><linearGradient id="linear-gradient" x1="346.5" y1="60" x2="346.5" y2="16.89" gradientUnits="userSpaceOnUse"><stop offset="0" stop-color="#fff"/><stop offset="1" stop-color="#e6e6e6"/></linearGradient></defs><title>Screen</title><path class="cls-1" d="M22,43,17,60H676l-4-19S457,15,338,17,22,43,22,43Z"/><path class="cls-2" d="M495.88,27.34c80.23,3.88,167,14.67,177.74,16a2.26,2.26,0,0,0,1.9-.67l17.87-18.38a2.14,2.14,0,0,0-1.19-3.61c-16.34-2.23-79.51-10.39-162.91-15.59C436.24-.69,353.5,0,346.51.06s-88.75-.75-181.8,5.05C81.31,10.31,18.14,18.47,1.8,20.7A2.14,2.14,0,0,0,.61,24.31L18.48,42.69a2.26,2.26,0,0,0,1.9.67c10.71-1.35,97.51-12.14,177.74-16,77.62-3.76,144.46-3.06,148.39-3S418.26,23.58,495.88,27.34Z"/><path class="cls-3" d="M495,29.5C574.79,33.34,661.09,44,671.74,45.36a2.23,2.23,0,0,0,1.88-.66l17.77-18.19a2.12,2.12,0,0,0-1.18-3.58c-16.24-2.2-79.05-10.29-162-15.43-92.51-5.74-174.77-5.07-181.73-5s-88.24-.74-180.75,5C82.84,12.64,20,20.73,3.79,22.93a2.12,2.12,0,0,0-1.18,3.58L20.38,44.7a2.23,2.23,0,0,0,1.88.66C32.91,44,119.21,33.34,199,29.5c77.17-3.72,143.62-3,147.53-3S417.85,25.78,495,29.5Z"/></svg>
